<svg width="39" height="38" viewBox="0 0 39 38" fill="none" xmlns="http://www.w3.org/2000/svg">
<path d="M12.2418 19.4526C8.6008 21.0813 5.56601 23.8257 3.57315 27.2479C-0.918034 22.9115 -1.21435 15.1123 2.90499 10.4448C4.33233 13.348 6.50723 15.7999 9.05979 17.7405C10.0339 18.4396 11.1049 19.0168 12.2437 19.4506L12.2418 19.4526Z" fill="#83D494"/>
<path d="M38.9688 20.3571C38.7828 21.7399 36.6641 23.3764 36.0095 24.0601C34.3207 25.6792 32.4092 27.3894 30.7843 29.0569C28.7915 31.1698 26.0588 35.175 24.2867 37.6114L17.3708 37.6966C20.4637 31.9968 25.4681 23.8045 31.9153 20.022C25.9368 17.9168 17.2643 2.26997 16.875 0.0136806L23.9904 0.00012207C24.9394 3.71477 33.8307 15.279 35.7849 16.5359C36.0269 16.7393 39.0036 19.1718 38.9668 20.3571H38.9688Z" fill="#001960"/>
<path d="M6.12891 1.55139H12.6691C15.0609 6.7244 17.3966 12.2286 24.878 18.7805C24.878 18.7805 25.6933 19.778 24.6495 20.5275C23.3732 21.3118 14.048 31.6172 12.5684 36.1433H6.12891C6.12891 36.1433 10.5329 28.3945 13.4225 23.7366C14.3424 22.255 16.5948 19.9968 19.0253 19.5029C14.2243 18.5849 9.3748 6.82898 6.12891 1.55139Z" fill="#001960"/>
</svg>
