<svg width="1265" height="3016" viewBox="0 0 1265 3016" fill="none" xmlns="http://www.w3.org/2000/svg">
<path d="M269.535 2041.63C324.484 2025.12 379.306 1994.66 422.796 1956.29C474.532 1910.69 508.716 1856.5 537.55 1803.6C566.384 1750.7 591.67 1696.96 630.889 1645.84C670.206 1594.66 726.622 1544.93 791.611 1520.79C832.38 1505.66 873.78 1501.5 914.328 1484.93C1042.6 1432.49 1107.26 1283.31 1236.1 1234C1291.14 1212.93 1345.37 1215.93 1400.82 1198.42C1473.33 1175.57 1541.91 1115.48 1562.56 1056.73" stroke="#62A8B2" stroke-width="2" stroke-miterlimit="10"/>
<path d="M261.854 2034.2C307.644 2018.72 354.324 1994.31 394.842 1964.84C402.815 1959.09 410.528 1953.06 417.949 1946.95C448.483 1921.72 473.492 1894.44 494.757 1866.92C511.042 1845.89 525.244 1824.69 538.698 1803.24C546.606 1790.64 554.418 1777.85 562.426 1764.71C580.611 1734.53 598.381 1702.78 618.164 1672.06C623.84 1663.22 629.71 1654.52 635.776 1645.96C650.988 1624.54 668.64 1603.49 688.465 1584.29C716.534 1557.13 749.013 1533.54 785.523 1518.22C824.414 1501.93 864.883 1495.98 905.471 1478.84C911.54 1476.25 917.414 1473.53 923.223 1470.68C960.791 1451.99 993.311 1426.74 1024.19 1398.46C1073.44 1353.32 1118.08 1300.48 1171.69 1262.53C1190.12 1249.5 1209.58 1238.27 1230.82 1229.59C1273.1 1212.34 1314.89 1208.78 1357.46 1199.81C1369.98 1197.13 1382.66 1194.04 1395.31 1189.89C1468.3 1166.39 1537.86 1108.99 1560.17 1054.7" stroke="#69A3AE" stroke-width="2" stroke-miterlimit="10"/>
<path d="M254.179 2026.86C299.947 2009.69 347.348 1984.35 389.106 1955.24C397.334 1949.51 405.269 1943.71 412.977 1937.7C444.561 1913.16 470.945 1887.22 493.324 1861.76C510.339 1842.25 525.237 1823 539.846 1802.92C548.396 1791.14 556.914 1779.05 565.762 1766.13C585.851 1736.61 604.686 1703.85 623.873 1672.53C629.35 1663.57 634.892 1654.74 640.694 1645.94C654.985 1624.24 671.032 1603.05 689.119 1583.69C714.892 1556.29 744.522 1532.09 779.32 1515.68C816.206 1498.21 856.006 1490.51 896.537 1472.85C902.57 1470.21 908.538 1467.43 914.409 1464.47C952.245 1445.67 985.42 1421.82 1017.02 1394.34C1067.5 1350.57 1113.25 1297.63 1166.8 1258.96C1185.12 1245.77 1204.6 1234.14 1225.6 1225.03C1267.5 1206.86 1309.17 1201.65 1351.94 1191.67C1364.55 1188.7 1377.22 1185.36 1389.97 1181.18C1463.3 1157.02 1534.01 1102.36 1558.04 1052.39" stroke="#719DAA" stroke-width="2" stroke-miterlimit="10"/>
<path d="M246.516 2019.53C292.23 2000.61 340.417 1974.48 383.511 1945.66C391.993 1939.97 400.215 1934.26 408.144 1928.47C440.842 1904.51 468.632 1879.97 491.995 1856.54C509.771 1838.61 525.43 1821.18 540.966 1802.51C550.058 1791.6 559.478 1780.1 569.066 1767.45C590.959 1738.64 611.055 1704.77 629.449 1672.96C634.728 1663.89 640.007 1654.81 645.415 1645.99C658.755 1623.96 673.23 1602.7 689.68 1583.12C713.03 1555.46 739.525 1529.84 773.001 1513.12C808.27 1495.5 846.919 1485.08 887.491 1466.86C893.487 1464.15 899.517 1461.27 905.417 1458.38C943.521 1439.46 977.35 1417 1009.6 1390.43C1061.32 1348.03 1108.1 1295.11 1161.78 1255.63C1180.09 1242.21 1199.4 1230.29 1220.26 1220.7C1261.87 1201.58 1303.33 1194.76 1346.21 1183.83C1358.81 1180.62 1371.61 1177.06 1384.41 1172.77C1458.21 1147.97 1529.91 1095.97 1555.68 1050.36" stroke="#7898A6" stroke-width="2" stroke-miterlimit="10"/>
<path d="M238.763 2012.1C284.326 1991.5 333.397 1964.52 377.698 1935.98C386.369 1930.45 394.845 1924.77 403.094 1919.14C436.938 1895.81 466.036 1872.72 490.447 1851.2C508.984 1834.84 525.373 1819.15 541.898 1802.02C551.631 1791.91 561.756 1781.11 572.182 1768.68C595.943 1740.44 617.134 1705.63 634.967 1673.3C640.113 1663.99 644.999 1654.9 650.046 1645.89C662.469 1623.58 675.44 1602.12 690.158 1582.39C711.122 1554.53 735.226 1529.2 766.741 1510.4C799.593 1490.79 837.962 1479.39 878.511 1460.71C884.57 1457.9 890.595 1455.02 896.459 1452.07C934.833 1433.03 969.316 1411.96 1002.29 1386.19C1055.2 1345.07 1103.03 1292.17 1156.75 1251.92C1175.04 1238.29 1194.18 1226.07 1214.8 1216.05C1256.16 1196.03 1297.38 1187.56 1340.4 1175.75C1353.09 1172.25 1365.91 1168.52 1378.77 1164.11C1453.05 1138.68 1525.86 1089.33 1553.15 1048.1" stroke="#8092A2" stroke-width="2" stroke-miterlimit="10"/>
<path d="M231.076 2004.79C276.586 1982.46 326.506 1954.57 371.978 1926.5C380.903 1921 389.666 1915.42 398.233 1909.94C433.222 1887.25 463.691 1865.48 489.084 1845.98C508.381 1831.18 525.432 1817.36 543.109 1801.57C553.481 1792.28 564.279 1782.1 575.574 1769.95C601.134 1742.41 623.518 1706.61 640.724 1673.63C645.672 1664.21 650.328 1654.94 654.95 1645.85C666.359 1623.33 677.828 1601.67 690.815 1581.78C709.363 1553.67 730.693 1527.86 760.537 1507.81C791.424 1487.11 828.998 1473.97 869.589 1454.72C875.611 1451.85 881.699 1448.86 887.689 1445.93C926.33 1426.77 961.435 1407.02 995.2 1382.16C1049.27 1342.27 1098.27 1289.39 1151.95 1248.5C1170.24 1234.65 1189.2 1222.14 1209.68 1211.65C1250.76 1190.68 1291.77 1180.62 1334.99 1167.82C1347.77 1164.03 1360.62 1160.12 1373.63 1155.56C1448.29 1129.54 1522.17 1082.77 1551.22 1045.86" stroke="#878D9E" stroke-width="2" stroke-miterlimit="10"/>
<path d="M223.314 1997.61C268.71 1973.67 319.484 1944.87 366.262 1917.02C375.441 1911.55 384.524 1906.12 393.248 1900.73C429.286 1878.72 461.129 1858.26 487.602 1840.71C507.726 1827.35 525.571 1815.38 544.108 1801.1C555.12 1792.6 566.623 1783.11 578.754 1771.17C606.181 1744.2 629.66 1707.46 646.306 1673.95C651.026 1664.34 655.484 1654.95 659.65 1645.72C670.112 1622.86 679.985 1601.05 691.375 1581.01C707.641 1552.64 725.974 1526.4 754.381 1505.05C783.243 1483.37 820.189 1468.32 860.729 1448.55C866.813 1445.57 872.8 1442.64 878.852 1439.6C917.863 1420.26 953.527 1401.94 987.919 1377.9C1043.22 1339.34 1093.26 1286.47 1146.95 1244.74C1165.1 1230.66 1184.12 1217.82 1204.36 1206.9C1245.17 1184.97 1285.96 1173.33 1329.3 1159.59C1342.07 1155.56 1355.01 1151.36 1368.12 1146.75C1443.26 1120.1 1518.16 1075.99 1548.89 1043.25" stroke="#8F8799" stroke-width="2" stroke-miterlimit="10"/>
<path d="M215.57 1990.73C260.921 1965.07 312.488 1935.46 360.508 1907.94C369.943 1902.49 379.215 1897.22 388.26 1891.98C425.446 1870.58 458.567 1851.47 486.122 1835.87C507.008 1824.05 525.648 1813.93 545.111 1801.02C556.763 1793.32 568.972 1784.51 581.972 1772.84C611.2 1746.54 635.841 1708.74 651.898 1674.62C656.519 1664.84 660.522 1655.3 664.394 1646C673.943 1622.86 682.222 1600.9 691.888 1580.69C705.648 1552.11 721.315 1525.32 748.092 1502.78C774.934 1480.12 811.126 1463.14 851.747 1442.87C857.797 1439.83 863.846 1436.79 870.025 1433.76C909.344 1414.36 945.635 1397.33 980.786 1374.12C1037.29 1336.82 1088.48 1283.88 1142.15 1241.48C1160.29 1227.19 1179.13 1214.04 1199.24 1202.65C1239.78 1179.75 1280.36 1166.54 1323.81 1151.85C1336.68 1147.53 1349.65 1143.16 1362.81 1138.45C1438.44 1111.14 1514.34 1069.62 1546.72 1041.21" stroke="#968295" stroke-width="2" stroke-miterlimit="10"/>
<path d="M207.746 1984.18C253.059 1956.78 305.393 1926.29 354.663 1899.08C364.387 1893.72 373.916 1888.47 383.184 1883.45C421.525 1862.65 456.025 1844.83 484.471 1831.25C506.09 1820.9 525.527 1812.62 546.016 1801.02C558.31 1794.11 571.194 1785.91 585.065 1774.51C616.163 1748.75 641.903 1709.98 657.375 1675.25C661.768 1665.27 665.575 1655.61 668.992 1646.16C677.6 1622.66 684.319 1600.59 692.361 1580.15C703.718 1551.29 716.56 1524.12 741.843 1500.14C766.605 1476.61 802.245 1457.6 842.922 1436.75C848.937 1433.65 855.082 1430.56 861.26 1427.53C900.86 1407.99 937.815 1392.31 973.601 1369.91C1031.35 1333.9 1083.59 1280.91 1137.28 1237.65C1155.41 1223.13 1174.1 1209.68 1194.07 1197.8C1234.24 1173.99 1274.6 1159.12 1318.43 1143.51C1331.3 1138.96 1344.39 1134.36 1357.58 1129.46C1433.58 1101.49 1510.64 1062.6 1544.75 1038.36" stroke="#9E7D91" stroke-width="2" stroke-miterlimit="10"/>
<path d="M200.048 1982.03C245.285 1952.81 298.586 1921.31 349.269 1894.24C359.164 1888.94 369.027 1883.82 378.694 1878.81C418.208 1858.46 454.067 1841.96 483.637 1830.26C506.05 1821.4 526.277 1814.86 547.755 1804.64C560.707 1798.49 574.315 1790.93 589.044 1779.67C621.989 1754.46 649.062 1714.44 663.774 1679.04C667.978 1668.89 671.564 1658.99 674.563 1649.41C682.176 1625.57 687.411 1603.18 693.84 1582.41C702.939 1553.14 712.972 1525.47 736.599 1500.05C759.411 1475.49 794.35 1454.46 835.103 1432.87C841.19 1429.64 847.309 1426.48 853.59 1423.39C893.524 1403.62 931.159 1389.15 967.789 1367.53C1026.82 1332.6 1080.19 1279.33 1134.04 1235.13C1152.1 1220.37 1170.83 1206.45 1190.5 1194.13C1230.46 1169.24 1270.67 1152.73 1314.68 1136.1C1327.62 1131.17 1340.8 1126.44 1354.17 1121.36C1430.77 1092.6 1508.93 1056.1 1544.84 1036" stroke="#A5778D" stroke-width="2" stroke-miterlimit="10"/>
<path d="M192.225 1980.08C237.493 1948.96 291.674 1916.49 343.65 1889.53C353.818 1884.23 363.984 1879.18 373.889 1874.34C414.617 1854.5 451.812 1839.26 482.513 1829.44C505.725 1822.08 526.78 1817.35 549.219 1808.45C562.931 1803.01 577.169 1796.15 592.76 1785.04C627.53 1760.3 655.845 1719.05 669.995 1682.85C674.108 1672.46 677.276 1662.43 679.956 1652.67C686.67 1628.41 690.321 1605.74 695.038 1584.69C701.745 1554.98 708.966 1526.79 731.036 1499.85C752.028 1474.24 786.205 1451.05 827.009 1428.88C833.071 1425.57 839.296 1422.34 845.584 1419.24C885.858 1399.23 924.214 1386.05 961.664 1365.14C1022.03 1331.33 1076.6 1277.64 1130.49 1232.47C1148.57 1217.4 1167.16 1203.11 1186.73 1190.24C1226.48 1164.25 1266.55 1146.06 1310.74 1128.4C1323.71 1123.2 1336.99 1118.15 1350.48 1113C1427.69 1083.43 1507.01 1049.38 1544.59 1033.45" stroke="#AD7289" stroke-width="2" stroke-miterlimit="10"/>
<path d="M184.382 1978.36C229.618 1945.45 284.719 1911.8 338.063 1885.08C348.535 1879.84 358.877 1874.84 369.119 1870.14C410.97 1850.85 449.703 1836.78 481.442 1828.9C505.425 1822.98 527.408 1820.03 550.846 1812.53C565.221 1807.85 580.256 1801.51 596.647 1790.67C633.347 1766.35 662.812 1723.91 676.4 1686.88C680.292 1676.25 683.238 1665.98 685.597 1656.02C691.38 1631.27 693.476 1608.38 696.574 1586.99C700.918 1556.9 705.451 1528.18 725.93 1499.64C745.001 1473.03 778.452 1447.7 819.376 1424.83C825.511 1421.4 831.711 1418.09 838.106 1414.92C878.822 1394.61 917.805 1382.78 955.95 1362.57C1017.65 1329.89 1073.37 1275.87 1127.4 1229.65C1145.5 1214.27 1163.93 1199.53 1183.43 1186.17C1222.97 1159.07 1262.9 1139.19 1307.42 1120.49C1320.5 1114.97 1333.84 1109.72 1347.4 1104.43C1425.14 1074.09 1505.68 1042.39 1545.09 1030.65" stroke="#B46C85" stroke-width="2" stroke-miterlimit="10"/>
<path d="M176.474 1976.67C221.749 1941.81 277.744 1907.16 332.494 1880.49C343.241 1875.25 353.889 1870.31 364.373 1865.79C407.45 1847.01 447.532 1834.22 480.41 1828.25C505.167 1823.79 528.017 1822.75 552.424 1816.58C567.499 1812.75 583.235 1806.99 600.495 1796.29C639.034 1772.44 669.752 1728.74 682.81 1690.95C686.513 1680.13 689.238 1669.61 691.177 1659.51C695.961 1634.39 696.662 1611.09 698.04 1589.4C700.113 1558.87 701.919 1529.55 720.61 1499.51C737.855 1471.82 770.579 1444.34 811.528 1420.81C817.64 1417.29 823.946 1413.92 830.349 1410.73C871.414 1390.18 911.127 1379.64 950.101 1360.15C1013.22 1328.48 1069.99 1274.18 1124.16 1226.9C1142.19 1211.26 1160.58 1196.08 1179.98 1182.16C1219.32 1153.92 1259.12 1132.34 1303.83 1112.57C1317.03 1106.73 1330.41 1101.28 1344.06 1095.84C1422.43 1064.68 1504.24 1035.4 1545.34 1027.88" stroke="#BC6781" stroke-width="2" stroke-miterlimit="10"/>
<path d="M168.429 1974.88C213.647 1938.12 270.641 1902.39 326.74 1875.89C337.763 1870.65 348.752 1865.84 359.544 1861.38C403.854 1843.1 445.356 1831.48 479.347 1827.63C504.914 1824.69 528.602 1825.52 553.95 1820.64C569.695 1817.59 586.136 1812.42 604.3 1801.93C644.719 1778.61 676.664 1733.56 689.16 1694.93C692.74 1683.8 695.077 1673.2 696.663 1662.84C700.511 1637.21 699.649 1613.68 699.302 1591.68C698.968 1560.69 698.203 1530.84 715.2 1499.21C730.649 1470.5 762.484 1440.77 803.593 1416.58C809.681 1412.99 816.062 1409.47 822.474 1406.28C863.925 1385.53 904.339 1376.24 944.116 1357.4C1008.59 1326.87 1066.59 1272.11 1120.84 1223.86C1138.87 1207.83 1157.26 1192.27 1176.35 1177.89C1215.5 1148.51 1255.17 1125.2 1300.08 1104.36C1313.29 1098.24 1326.83 1092.52 1340.66 1086.89C1419.66 1054.88 1502.62 1028.04 1545.55 1024.79" stroke="#C3617D" stroke-width="2" stroke-miterlimit="10"/>
<path d="M160.388 1973.13C205.649 1934.39 263.515 1897.56 320.969 1871.23C332.302 1866.05 343.47 1861.3 354.603 1856.98C400.118 1839.14 443.013 1828.89 478.153 1826.98C504.5 1825.52 529.061 1828.29 555.484 1824.73C571.835 1822.58 589.08 1817.95 608.12 1807.6C650.49 1784.71 683.633 1738.49 695.467 1699.06C698.858 1687.74 700.972 1676.88 702.136 1666.38C705.079 1640.31 702.618 1616.47 700.64 1594.11C697.923 1562.71 694.549 1532.26 709.749 1499.09C723.463 1469.23 754.474 1437.36 795.613 1412.5C801.776 1408.76 808.068 1405.29 814.686 1401.97C856.491 1380.96 897.643 1373 938.159 1354.94C1003.99 1325.56 1063.16 1270.44 1117.53 1221.04C1135.59 1204.69 1153.84 1188.73 1172.83 1173.77C1211.75 1143.18 1251.32 1118.18 1296.56 1096.28C1309.89 1089.83 1323.55 1083.78 1337.4 1078.12C1416.92 1045.25 1501.19 1020.94 1545.82 1021.99" stroke="#CB5C79" stroke-width="2" stroke-miterlimit="10"/>
<path d="M152.262 1971.38C197.603 1930.7 256.447 1892.7 315.262 1866.54C326.776 1861.41 338.353 1856.67 349.731 1852.53C396.391 1835.27 440.817 1826.15 477.045 1826.32C504.275 1826.31 529.516 1831.15 557.018 1828.91C574.044 1827.55 591.999 1823.52 611.982 1813.45C656.214 1791.04 690.725 1743.45 701.897 1703.22C705.098 1691.7 706.857 1680.57 707.698 1669.86C709.7 1643.28 705.668 1619.2 702.054 1596.48C697.015 1564.55 690.923 1533.54 704.324 1498.81C716.2 1467.83 746.387 1433.8 787.657 1408.2C793.797 1404.38 800.165 1400.77 806.793 1397.43C849.056 1376.11 890.85 1369.53 932.177 1352.14C999.349 1323.85 1059.79 1268.32 1114.24 1217.93C1132.33 1201.25 1150.45 1184.89 1169.35 1169.35C1207.96 1137.64 1247.51 1110.83 1292.95 1087.83C1306.31 1081.1 1320.12 1074.78 1334.03 1068.91C1414.19 1035.18 1499.62 1013.34 1546.06 1018.68" stroke="#D25775" stroke-width="2" stroke-miterlimit="10"/>
<path d="M144.057 1969.4C189.346 1926.76 249.203 1887.65 309.351 1861.6C321.145 1856.47 332.968 1851.91 344.657 1847.84C392.565 1831.1 438.36 1823.31 475.648 1825.51C503.696 1827.08 529.783 1833.83 558.269 1832.98C575.971 1832.43 594.671 1829.07 615.535 1819.15C661.634 1797.22 697.419 1748.32 708.024 1707.22C711.101 1695.39 712.569 1684.11 712.987 1673.26C713.98 1646.28 708.536 1621.78 703.084 1598.8C695.649 1566.46 687.031 1534.78 698.627 1498.47C708.791 1466.4 738.086 1430.05 779.521 1403.77C785.736 1399.81 792.114 1396.19 798.851 1392.78C841.474 1371.19 884.044 1366.03 926.084 1349.37C994.661 1322.31 1056.24 1266.36 1110.82 1214.79C1128.84 1197.84 1147.02 1180.97 1165.72 1164.89C1204.14 1132 1243.56 1103.42 1289.21 1079.31C1302.68 1072.24 1316.55 1065.71 1330.54 1059.69C1411.35 1025.09 1497.98 1005.83 1546.24 1015.49" stroke="#DA5170" stroke-width="2" stroke-miterlimit="10"/>
<path d="M135.811 1967.41C181.149 1922.73 241.892 1882.5 303.544 1856.63C315.65 1851.56 327.754 1847 339.757 1843.01C388.916 1826.79 436.186 1820.28 474.536 1824.54C503.373 1827.63 530.309 1836.32 559.882 1836.81C578.295 1837.14 597.677 1834.32 619.459 1824.62C667.53 1803.13 704.495 1752.95 714.564 1711.04C717.451 1699.01 718.694 1687.48 718.654 1676.41C718.734 1648.97 711.677 1624.16 704.579 1600.81C694.709 1567.99 683.588 1535.7 693.242 1497.8C701.757 1464.48 730.026 1426.04 771.562 1398.94C777.755 1394.9 784.208 1391.14 790.956 1387.72C833.941 1365.86 877.258 1362.06 920.114 1346.08C990.07 1320.21 1052.8 1263.82 1107.57 1211.2C1125.62 1193.92 1143.63 1176.57 1162.17 1160.02C1200.36 1125.88 1239.68 1095.57 1285.64 1070.29C1299.1 1062.88 1313.16 1056.14 1327.24 1049.97C1408.6 1014.55 1496.53 997.82 1546.52 1011.9" stroke="#E14C6C" stroke-width="2" stroke-miterlimit="10"/>
<path d="M127.703 1965.33C172.99 1918.66 234.751 1877.31 297.744 1851.56C310.131 1846.49 322.45 1842.05 334.798 1838.19C385.212 1822.51 433.859 1817.35 473.372 1823.63C503.131 1828.27 530.819 1838.96 561.381 1840.87C580.474 1842.02 600.572 1839.82 623.272 1830.34C673.189 1809.28 711.499 1757.9 720.967 1715.05C723.63 1702.76 724.58 1691.08 724.214 1679.81C723.345 1651.85 714.702 1626.8 705.855 1603.13C693.574 1569.9 679.978 1536.81 687.75 1497.44C694.51 1462.93 721.915 1422.21 763.517 1394.49C769.687 1390.36 776.249 1386.53 783.106 1383.03C826.453 1360.92 870.517 1358.49 914.222 1343.26C985.558 1318.59 1049.54 1261.73 1104.46 1207.99C1122.54 1190.37 1140.42 1172.61 1158.86 1155.47C1196.75 1120.2 1236.01 1087.96 1282.24 1061.7C1295.83 1053.94 1309.9 1046.92 1324.2 1040.61C1406.22 1004.31 1495.32 990.138 1547.16 1008.69" stroke="#E94668" stroke-width="2" stroke-miterlimit="10"/>
<path d="M119.429 1963.15C164.798 1914.49 227.451 1872 291.822 1846.43C304.492 1841.36 317.158 1837.06 329.722 1833.33C381.295 1818.24 431.524 1814.33 472.105 1822.7C502.689 1828.96 531.131 1841.67 562.785 1844.96C582.462 1846.99 603.41 1845.42 627 1836.1C678.932 1815.55 718.397 1762.82 727.326 1719.15C729.897 1706.61 730.488 1694.66 729.695 1683.23C727.907 1654.82 717.608 1629.39 707.138 1605.41C692.407 1571.7 676.293 1538 682.113 1497.01C687.213 1461.25 713.587 1418.4 755.323 1389.92C761.569 1385.66 768.109 1381.74 774.976 1378.23C818.72 1355.91 863.501 1354.81 907.959 1340.4C980.649 1316.87 1045.85 1259.72 1100.93 1204.85C1118.94 1186.96 1136.78 1168.73 1155.12 1150.99C1192.82 1114.51 1231.95 1080.45 1278.39 1053.07C1292.1 1044.96 1306.23 1037.72 1320.62 1031.26C1403.29 994.08 1493.69 982.493 1547.26 1005.54" stroke="#F04164" stroke-width="2" stroke-miterlimit="10"/>
<path d="M111.19 1960.97C156.508 1910.29 220.185 1866.67 286.004 1841.16C298.89 1836.22 311.938 1831.87 324.75 1828.33C377.552 1813.72 429.198 1811.26 470.949 1821.68C502.327 1829.5 531.657 1844.27 564.405 1848.94C584.798 1851.86 606.564 1850.87 630.947 1841.76C684.768 1821.73 725.521 1767.65 733.778 1723.16C736.156 1710.41 736.52 1698.2 735.397 1686.57C732.555 1657.69 720.761 1631.96 708.63 1607.61C691.574 1573.43 672.871 1538.98 676.698 1496.56C680.133 1459.54 705.571 1414.5 747.341 1385.32C753.564 1380.97 760.213 1376.98 767.189 1373.4C811.397 1350.76 856.829 1351.11 902.109 1337.41C976.186 1315.1 1042.64 1257.48 1097.82 1201.6C1115.85 1183.38 1133.56 1164.74 1151.8 1146.4C1189.29 1108.72 1228.3 1072.83 1275.04 1044.25C1288.77 1035.85 1303.06 1028.34 1317.54 1021.73C1400.74 983.65 1492.45 974.676 1547.78 1002.33" stroke="#F83B60" stroke-width="2" stroke-miterlimit="10"/>
<path d="M102.93 1958.7C148.296 1905.94 212.869 1861.16 280.074 1835.85C347.279 1810.54 416.388 1805.03 469.696 1820.65C521.981 1835.99 568.71 1870.62 634.714 1847.53C690.528 1827.95 732.574 1772.53 740.157 1727.21C747.739 1681.89 729.324 1644.55 709.803 1609.89C690.283 1575.22 669.114 1540.04 671.043 1496.11C672.971 1452.18 705.048 1396.3 759.025 1368.53C803.598 1345.63 849.784 1347.39 895.919 1334.47C971.356 1313.33 1039.01 1255.36 1094.34 1198.34C1149.67 1141.33 1201.55 1079.59 1271.17 1035.56C1364.35 976.713 1480.74 961.398 1547.86 999.162" stroke="#FF365C" stroke-width="2" stroke-miterlimit="10"/>
<path d="M103.07 1952.79C147.735 1900.44 211.368 1855.89 277.862 1830.12C303.384 1820.3 329.219 1813.19 354.479 1809.04C394.941 1802.39 433.68 1803.33 466.645 1812.1C507.406 1822.87 544.91 1845.06 589.95 1844.68C603.03 1844.56 616.681 1842.5 631.269 1837.71C686.289 1819.75 727.821 1767.97 738.012 1723.93C745.674 1690.49 739.087 1659.95 727.544 1631.93C723.838 1622.79 719.604 1613.87 715.335 1605.14C697.937 1569.53 678.96 1533.28 682.267 1488.86C685.471 1445.26 717.234 1390.56 770.462 1362.72C814.407 1339.67 860.266 1340.18 906.033 1327.32C980.936 1306.35 1047.98 1251.98 1102.9 1198.9C1109.09 1192.96 1115.12 1186.94 1121.18 1180.99C1169.48 1133.23 1216.83 1084.06 1277.95 1047.54C1293.38 1038.28 1309.64 1030.18 1326.05 1023.18C1407.32 988.862 1496.97 982.554 1552.37 1009.57" stroke="#FF3B5C" stroke-width="2" stroke-miterlimit="10"/>
<path d="M103.148 1946.8C147.116 1894.87 209.782 1850.48 275.604 1824.33C300.838 1814.36 326.486 1807.04 351.527 1802.58C391.671 1795.51 430.329 1795.68 463.456 1803.58C504.398 1813.28 542.156 1834.22 586.897 1834.2C599.75 1834.19 613.238 1832.39 627.627 1828.06C681.957 1811.63 723.078 1763.4 735.536 1720.74C745.212 1688.06 740.909 1656.71 731.07 1627.93C727.866 1618.58 724.234 1609.39 720.468 1600.43C705.247 1563.78 688.485 1526.56 693.097 1481.77C697.504 1438.62 729.055 1385.03 781.375 1357.06C824.696 1333.86 870.098 1333.13 915.631 1320.34C989.873 1299.53 1056.45 1248.73 1111.06 1199.48C1117.17 1193.95 1123.28 1188.42 1129.26 1182.89C1177.16 1138.73 1224.09 1093.34 1284.43 1059.36C1299.73 1050.73 1315.68 1043.16 1331.92 1036.7C1412.31 1004.52 1501.66 997.293 1556.64 1019.91" stroke="#FF415D" stroke-width="2" stroke-miterlimit="10"/>
<path d="M103.386 1940.83C146.593 1889.46 208.393 1845.18 273.511 1818.59C298.526 1808.36 323.887 1800.88 348.742 1796.19C388.635 1788.58 427.145 1788.11 460.433 1795.16C501.552 1803.81 539.662 1823.44 584.006 1823.83C596.765 1823.94 610.058 1822.33 624.215 1818.4C677.825 1803.41 718.437 1758.76 733.415 1717.48C744.965 1685.57 743.134 1653.3 734.957 1623.98C732.351 1614.36 729.218 1604.95 725.954 1595.79C712.802 1558.17 698.342 1519.93 704.221 1474.74C709.825 1432.05 741.131 1379.5 792.71 1351.48C835.507 1328.08 880.486 1326.2 925.687 1313.54C999.301 1292.96 1065.38 1245.63 1119.61 1200.28C1125.67 1195.23 1131.7 1190.11 1137.7 1184.93C1185.28 1144.21 1231.71 1102.69 1291.21 1071.35C1306.28 1063.39 1322.06 1056.37 1338.06 1050.31C1417.47 1020.3 1506.63 1012.11 1561.18 1030.39" stroke="#FF465D" stroke-width="2" stroke-miterlimit="10"/>
<path d="M101.829 1934.49C144.392 1883.38 205.3 1839.13 269.852 1812.15C294.61 1801.75 319.812 1794.03 344.542 1788.91C384.228 1780.75 422.632 1779.65 456.116 1785.88C497.456 1793.51 535.956 1811.9 579.952 1812.71C592.499 1812.93 605.644 1811.57 619.587 1808.01C672.472 1794.53 712.888 1753.04 730.067 1713.1C743.664 1681.66 744.164 1648.63 737.571 1618.54C735.46 1608.69 732.856 1599.1 730.154 1589.58C719.183 1550.89 706.774 1511.57 714.056 1465.84C720.862 1423.47 751.994 1371.85 802.727 1343.61C844.983 1320.07 889.557 1316.97 934.541 1304.28C1007.68 1283.74 1073.27 1239.81 1127.25 1198.07C1133.24 1193.41 1139.22 1188.75 1145.18 1184.02C1192.42 1146.69 1238.49 1108.75 1297.28 1079.79C1312.23 1072.42 1327.76 1065.97 1343.68 1060.31C1422.19 1032.35 1511.26 1023.18 1565.34 1037.27" stroke="#FF4C5E" stroke-width="2" stroke-miterlimit="10"/>
<path d="M99.836 1928.09C141.77 1877.2 201.838 1833 265.781 1805.49C290.288 1794.91 315.307 1786.88 339.886 1781.51C379.409 1772.86 417.784 1771.01 451.374 1776.48C493.077 1783.12 531.845 1800.3 575.507 1801.52C587.977 1801.86 600.979 1800.74 614.613 1797.6C666.855 1785.49 707.022 1747.23 726.535 1708.6C742.113 1677.72 744.874 1643.78 740.091 1612.85C738.473 1602.75 736.462 1592.87 734.352 1583.04C725.425 1543.24 715.191 1502.84 723.942 1456.41C731.819 1414.31 762.885 1363.52 812.953 1335.11C854.747 1311.29 898.929 1306.97 943.677 1294.43C1016.29 1274.02 1081.45 1233.26 1135.13 1195.18C1141.18 1190.92 1147.09 1186.64 1153.01 1182.36C1199.99 1148.25 1245.64 1113.96 1303.75 1087.35C1318.48 1080.6 1333.84 1074.59 1349.57 1069.37C1427.23 1043.43 1516.22 1033.28 1569.95 1043.17" stroke="#FF515E" stroke-width="2" stroke-miterlimit="10"/>
<path d="M97.8292 1921.72C139.137 1871.04 198.435 1826.77 261.606 1798.9C285.865 1788.14 310.701 1779.81 335.228 1774.14C374.459 1764.99 412.871 1762.52 446.635 1767.12C488.57 1772.76 527.738 1788.74 571.068 1790.37C583.43 1790.76 596.19 1789.94 609.713 1787.11C661.349 1776.42 701.236 1741.31 723.048 1703.9C740.768 1673.41 745.753 1638.74 742.547 1607.03C741.553 1596.69 740.003 1586.5 738.386 1576.42C731.629 1535.54 723.435 1494.03 733.587 1447.03C742.665 1405.2 773.568 1355.28 822.842 1326.7C864.079 1302.65 907.903 1297.19 952.45 1284.6C1024.51 1264.27 1089.3 1226.78 1142.76 1192.23C1148.73 1188.34 1154.61 1184.51 1160.55 1180.56C1207.22 1149.76 1252.51 1118.98 1309.84 1094.75C1324.36 1088.63 1339.57 1083.13 1355.1 1078.28C1431.89 1054.34 1520.78 1043.15 1574.1 1048.98" stroke="#FF575F" stroke-width="2" stroke-miterlimit="10"/>
<path d="M95.8573 1915.25C136.443 1864.82 195.005 1820.56 257.573 1792.14C281.584 1781.21 306.27 1772.64 330.583 1766.59C369.622 1756.89 407.942 1753.8 442.01 1757.54C484.179 1762.19 523.649 1777.03 566.747 1779.02C578.934 1779.58 591.618 1778.88 604.834 1776.47C655.767 1767.25 695.704 1735.17 719.516 1699.15C739.409 1669.1 746.583 1633.64 744.983 1601.2C744.481 1590.62 743.521 1580.13 742.397 1569.81C737.773 1527.77 731.551 1485.28 743.166 1437.59C753.313 1396.02 784.185 1346.98 832.734 1318.1C873.448 1293.88 916.884 1287.22 961.232 1274.59C1032.84 1254.28 1097.17 1220.09 1150.31 1189.1C1156.24 1185.66 1162.14 1182.15 1167.94 1178.7C1214.26 1151.13 1259.21 1123.83 1315.89 1101.99C1330.3 1096.44 1345.26 1091.49 1360.61 1087.08C1436.64 1065.07 1525.37 1052.97 1578.34 1054.64" stroke="#FF5C5F" stroke-width="2" stroke-miterlimit="10"/>
<path d="M93.8614 1909.06C133.858 1858.9 191.525 1814.55 253.523 1785.67C277.386 1774.5 301.793 1765.68 325.958 1759.38C364.839 1749.2 403.034 1745.43 437.309 1748.36C479.712 1752.03 519.583 1765.69 562.352 1768.08C574.432 1768.7 586.876 1768.29 600.014 1766.25C650.346 1758.44 690.236 1729.42 716.112 1694.66C738.174 1665.05 747.402 1628.79 747.504 1595.58C747.592 1584.7 747.124 1573.96 746.491 1563.4C743.932 1520.33 739.743 1476.75 752.853 1428.43C764.001 1387.23 794.909 1338.94 842.767 1309.83C883.026 1285.32 926.075 1277.47 970.193 1264.98C1041.29 1244.81 1105.23 1213.79 1158.17 1186.34C1164.03 1183.27 1169.89 1180.21 1175.75 1177.14C1221.86 1152.81 1266.36 1129.02 1322.3 1109.6C1336.5 1104.67 1351.31 1100.22 1366.55 1096.12C1441.73 1076.1 1530.4 1063.03 1582.92 1060.62" stroke="#FF6160" stroke-width="2" stroke-miterlimit="10"/>
<path d="M91.8357 1902.93C131.213 1852.97 188.054 1808.66 249.455 1779.24C273.073 1767.89 297.332 1758.83 321.417 1752.18C360.01 1741.5 398.214 1737.06 432.697 1739.2C475.336 1741.88 515.511 1754.42 558.052 1757.16C569.959 1757.95 582.329 1757.66 595.162 1756.04C644.895 1749.62 684.838 1723.6 712.613 1690.25C736.941 1661.03 748.253 1624.03 749.924 1590.04C750.502 1578.91 750.557 1567.99 750.481 1557.06C750.049 1512.84 747.792 1468.22 762.395 1419.27C774.609 1378.32 805.489 1330.89 852.53 1301.53C892.239 1276.8 934.936 1267.82 978.858 1255.28C1049.42 1235.18 1112.99 1207.37 1165.72 1183.38C1171.64 1180.7 1177.43 1178.01 1183.22 1175.32C1228.98 1154.18 1273.17 1133.91 1328.44 1116.77C1342.43 1112.46 1357.07 1108.44 1372.13 1104.77C1446.46 1086.72 1534.97 1072.74 1587.25 1066.16" stroke="#FF6760" stroke-width="2" stroke-miterlimit="10"/>
<path d="M89.8372 1896.93C128.598 1847.15 184.583 1802.82 245.421 1772.93C268.795 1761.4 292.778 1752.09 316.782 1745.08C355.188 1733.85 393.303 1728.8 428.027 1730.21C471.001 1731.87 511.48 1743.29 553.696 1746.43C565.497 1747.27 577.661 1747.33 590.354 1745.96C639.361 1740.92 679.521 1717.95 709.226 1685.83C735.849 1657.05 749.179 1619.19 752.482 1584.54C753.549 1573.17 754.192 1561.95 754.606 1550.78C756.232 1505.53 756.003 1459.81 772.097 1410.23C785.278 1369.57 816.197 1322.87 862.586 1293.35C901.778 1268.45 944.19 1258.23 987.821 1245.7C1057.97 1225.67 1120.93 1201.04 1173.47 1180.57C1179.32 1178.26 1185.07 1176 1190.82 1173.75C1236.37 1155.8 1280.12 1139.01 1334.72 1124.15C1348.6 1120.39 1363 1116.93 1377.89 1113.69C1451.38 1097.59 1539.79 1082.59 1591.67 1072.03" stroke="#FF6C61" stroke-width="2" stroke-miterlimit="10"/>
<path d="M87.9119 1891.03C125.961 1841.49 181.226 1797.13 241.473 1766.7C264.605 1755 288.411 1745.39 312.271 1738.13C350.525 1726.42 388.652 1720.7 423.457 1721.31C466.669 1722 507.553 1732.25 549.415 1735.73C561.045 1736.74 573.136 1736.93 585.557 1736.02C633.973 1732.38 674.321 1712.37 705.792 1681.64C734.84 1653.3 749.989 1614.68 754.955 1579.19C756.641 1567.59 757.741 1556.06 758.645 1544.64C762.393 1498.24 764.089 1451.48 781.773 1401.2C795.92 1360.84 826.912 1314.92 872.523 1285.22C911.267 1260.02 953.203 1248.67 996.708 1236.22C1066.32 1216.26 1128.94 1194.8 1181.26 1177.75C1187.08 1175.88 1192.85 1173.94 1198.57 1172.12C1243.78 1157.34 1287.22 1144.01 1341.06 1131.48C1354.73 1128.33 1368.99 1125.35 1383.76 1122.42C1456.51 1108.22 1544.78 1092.31 1596.28 1077.61" stroke="#FF7261" stroke-width="2" stroke-miterlimit="10"/>
<path d="M85.8591 1885.34C123.331 1836.03 177.717 1791.56 237.412 1760.65C260.304 1748.76 283.967 1738.91 307.718 1731.23C345.791 1718.97 383.834 1712.64 418.851 1712.47C462.305 1712.19 503.596 1721.29 545.14 1725.17C556.665 1726.23 568.52 1726.7 580.737 1726.16C628.598 1723.95 669.169 1706.97 702.408 1677.36C733.88 1649.46 750.913 1609.96 757.572 1573.68C759.747 1561.83 761.434 1550.01 762.826 1538.34C768.628 1490.89 772.249 1443.08 791.521 1392.11C806.635 1352.02 837.671 1306.82 882.605 1276.87C920.807 1251.43 962.398 1238.96 1005.72 1226.46C1074.84 1206.62 1137.07 1188.26 1189.1 1174.68C1194.93 1173.12 1200.58 1171.66 1206.32 1170.16C1251.23 1158.59 1294.34 1148.65 1347.54 1138.44C1361.11 1135.84 1375.13 1133.41 1389.73 1130.9C1461.65 1118.62 1549.87 1101.76 1601.04 1082.99" stroke="#FF7762" stroke-width="2" stroke-miterlimit="10"/>
<path d="M83.7946 1879.73C120.66 1830.59 174.236 1786.12 233.349 1754.67C256.002 1742.6 279.492 1732.45 303.102 1724.52C340.897 1711.77 378.958 1704.77 414.189 1703.82C457.918 1702.64 499.585 1710.53 540.814 1714.81C552.268 1715.98 563.953 1716.63 575.967 1716.43C623.146 1715.66 664.04 1701.62 699.013 1673.32C732.908 1645.85 751.857 1605.52 760.111 1568.52C762.872 1556.37 765.047 1544.29 766.928 1532.38C774.847 1483.77 780.293 1434.96 801.153 1383.28C817.234 1343.46 848.346 1299.02 892.509 1268.87C930.27 1243.13 971.52 1229.56 1014.49 1217.17C1083.18 1197.34 1144.99 1182.17 1196.83 1172.05C1202.63 1170.92 1208.3 1169.78 1213.91 1168.76C1258.58 1160.26 1301.2 1153.88 1353.75 1145.91C1367.11 1143.92 1380.96 1141.9 1395.39 1139.81C1466.48 1129.47 1554.66 1111.65 1605.4 1088.88" stroke="#FF7D62" stroke-width="2" stroke-miterlimit="10"/>
<path d="M81.848 1874.39C118.11 1825.39 170.849 1780.87 229.418 1748.93C251.932 1736.62 275.185 1726.27 298.623 1718.04C336.274 1704.81 374.224 1697.13 409.671 1695.4C453.745 1693.21 495.725 1700 536.641 1704.68C547.895 1705.96 559.476 1706.9 571.288 1707.07C617.886 1707.66 659.073 1696.74 695.783 1669.48C732.068 1642.61 752.835 1601.27 762.78 1563.47C766.03 1551.07 768.725 1538.81 771.258 1526.48C781.228 1476.81 788.531 1426.81 811.043 1374.54C828.091 1334.99 859.251 1291.23 902.745 1260.83C939.97 1234.84 980.882 1220.15 1023.67 1207.71C1091.85 1187.92 1153.28 1175.83 1204.86 1169.2C1210.59 1168.44 1216.26 1167.79 1221.89 1167.08C1266.27 1161.77 1308.56 1158.76 1360.46 1153.02C1373.61 1151.63 1387.32 1150.1 1401.55 1148.37C1471.82 1139.94 1559.94 1121.1 1610.38 1094.34" stroke="#FF8263" stroke-width="2" stroke-miterlimit="10"/>
<path d="M79.7788 1869.2C115.342 1820.4 167.378 1775.81 225.374 1743.31C247.652 1730.82 270.735 1720.17 294.101 1711.57C331.578 1697.79 369.451 1689.51 405.117 1687C449.439 1683.85 491.832 1689.5 532.438 1694.58C543.622 1695.98 555.035 1697.09 566.646 1697.6C612.57 1699.61 654.051 1691.8 692.629 1665.59C731.402 1639.27 754.019 1596.96 765.525 1558.36C769.262 1545.71 772.543 1533.14 775.564 1520.55C787.649 1469.72 796.776 1418.7 820.875 1365.71C838.761 1326.39 870.1 1283.32 912.96 1252.73C949.651 1226.48 990.293 1210.57 1032.84 1198.18C1100.63 1178.45 1161.6 1169.47 1212.98 1166.21C1218.68 1165.87 1224.37 1165.54 1229.84 1165.25C1274.03 1163.06 1315.89 1163.46 1367.15 1159.94C1380.19 1159.1 1393.67 1158.11 1407.82 1156.74C1477.37 1150.17 1565.37 1130.42 1615.38 1099.67" stroke="#FF8763" stroke-width="2" stroke-miterlimit="10"/>
<path d="M77.7123 1864.17C112.677 1815.49 163.883 1770.82 221.342 1737.83C243.387 1725.15 266.334 1714.25 289.531 1705.34C326.836 1691.01 364.732 1682.07 400.52 1678.84C445.093 1674.73 487.901 1679.24 528.2 1684.72C539.283 1686.17 550.463 1687.57 561.874 1688.43C607.126 1691.86 648.937 1687.22 689.221 1661.97C730.385 1636.24 754.95 1592.91 768.017 1553.49C772.372 1540.6 776.108 1527.72 779.617 1514.88C793.719 1462.91 804.635 1410.81 830.486 1357.16C849.242 1318.14 880.73 1275.68 922.861 1244.94C959.021 1218.44 999.33 1201.41 1041.73 1189.02C1109.01 1169.34 1169.66 1163.47 1220.75 1163.63C1226.47 1163.6 1232.03 1163.74 1237.56 1163.82C1281.43 1164.75 1322.97 1168.48 1373.54 1167.38C1386.36 1167.07 1399.69 1166.55 1413.68 1165.6C1482.39 1160.88 1570.39 1140.23 1620.09 1105.44" stroke="#FF8D64" stroke-width="2" stroke-miterlimit="10"/>
<path d="M75.6437 1859.29C110.045 1810.8 160.424 1766.05 217.317 1732.49C239.128 1719.62 261.907 1708.41 285.067 1699.2C322.136 1684.44 360.058 1674.83 396.035 1670.76C440.86 1665.7 484.085 1669.08 524.078 1674.96C534.995 1676.58 546.041 1678.21 557.349 1679.37C602.03 1684.16 644.042 1682.66 686.195 1658.45C729.881 1633.31 756.134 1588.94 770.923 1548.78C775.765 1535.63 780.087 1522.44 784.084 1509.35C800.333 1456.26 813.038 1403.06 840.478 1348.67C860.17 1309.83 891.743 1268.09 933.213 1237.08C968.941 1210.27 1008.82 1192.18 1051.05 1179.73C1117.86 1160.15 1178.15 1157.32 1229.04 1160.83C1234.73 1161.23 1240.32 1161.69 1245.81 1162.19C1289.39 1166.28 1330.61 1173.36 1380.55 1174.46C1393.26 1174.7 1406.46 1174.67 1420.18 1174.18C1488.08 1171.36 1576.06 1149.76 1625.34 1110.98" stroke="#FF9264" stroke-width="2" stroke-miterlimit="10"/>
<path d="M73.6358 1854.45C107.443 1806.06 156.999 1761.22 213.264 1727.21C234.844 1714.14 257.457 1702.63 280.45 1693.1C317.351 1677.79 355.203 1667.57 391.403 1662.73C436.483 1656.71 479.997 1658.95 519.817 1665.24C530.633 1666.91 541.546 1668.77 552.558 1670.34C596.604 1676.6 638.372 1676.86 682.812 1654.99C729.435 1632.02 757.093 1585.03 773.443 1544.05C778.87 1530.6 783.582 1517.2 788.164 1503.8C806.429 1449.56 820.892 1395.21 850.213 1340.15C870.745 1301.53 902.535 1260.52 943.249 1229.29C978.451 1202.2 1018.07 1182.88 1060.09 1170.55C1126.49 1150.95 1186.37 1151.27 1236.97 1158.19C1242.59 1158.95 1248.15 1159.83 1253.57 1160.7C1296.93 1167.82 1337.77 1178.36 1386.97 1181.73C1399.48 1182.56 1412.54 1183.01 1426.16 1182.83C1493.26 1181.9 1581.23 1159.33 1630.19 1116.52" stroke="#FF9865" stroke-width="2" stroke-miterlimit="10"/>
<path d="M71.456 1849.53C104.573 1801.31 153.435 1756.39 209.138 1721.81C230.487 1708.55 252.966 1696.78 275.794 1686.95C312.559 1671.14 350.308 1660.25 386.733 1654.64C432.166 1647.61 476 1648.77 515.518 1655.46C526.169 1657.3 536.916 1659.33 547.728 1661.25C591.109 1668.92 633.691 1673.78 679.457 1651.36C727.926 1627.63 758.046 1580.89 776.086 1539.09C782 1525.38 787.297 1511.68 792.367 1498.02C812.778 1442.65 828.9 1387.18 859.973 1331.46C881.344 1293.05 913.35 1252.76 953.375 1221.19C988.148 1193.78 1027.34 1173.4 1069.19 1161.01C1135.12 1141.51 1194.61 1144.8 1245.1 1155.19C1250.68 1156.37 1256.26 1157.56 1261.65 1158.85C1304.73 1169.13 1345.25 1183 1393.81 1188.58C1406.12 1190.01 1419.05 1190.93 1432.47 1191.1C1498.76 1192.06 1586.59 1168.53 1635.26 1121.75" stroke="#FF9D65" stroke-width="2" stroke-miterlimit="10"/>
<path d="M69.4073 1849.62C101.985 1801.27 150.102 1756.01 205.361 1720.74C226.61 1707.17 248.861 1695.09 271.655 1684.83C308.211 1668.44 346.046 1656.83 382.749 1650.41C428.506 1642.39 472.825 1642.43 512.098 1649.56C522.664 1651.46 533.228 1653.85 543.956 1656.08C586.766 1665.27 629.614 1673.3 677.291 1651.73C728.197 1628.65 760.253 1580.49 780.016 1537.67C786.429 1523.62 792.354 1509.6 797.888 1495.55C820.354 1438.74 838.266 1381.82 871.144 1325.13C893.391 1286.74 925.635 1246.9 964.999 1215.01C999.3 1187.19 1038.32 1165.53 1079.97 1153.06C1145.5 1133.5 1204.76 1139.91 1255.03 1153.77C1260.65 1155.27 1266.11 1156.94 1271.57 1158.62C1314.49 1172 1354.69 1189.4 1402.68 1197.23C1414.9 1199.21 1427.59 1200.61 1440.89 1201.26C1506.58 1204.08 1594.42 1179.51 1642.86 1128.44" stroke="#FFA366" stroke-width="2" stroke-miterlimit="10"/>
<path d="M67.42 1850.16C111.776 1783.05 185.597 1721.38 267.548 1683.16C349.467 1644.88 438.47 1630.46 508.76 1644.04C561.372 1654.26 613.165 1678.56 675.178 1652.43C728.439 1630.03 762.608 1580.25 784.005 1536.41C819.361 1463.81 839.143 1390.81 882.447 1318.87C925.849 1246.86 1001.76 1171.89 1091.02 1145.02C1163.53 1123.14 1228.22 1137.5 1281.79 1158.36C1335.36 1179.22 1384.62 1206.72 1449.65 1211.53C1514.67 1216.34 1602.62 1190.59 1650.83 1135.17" stroke="#FFA866" stroke-width="2" stroke-miterlimit="10"/>
</svg>
